<?xml version="1.0" standalone="no"?>
<!DOCTYPE svg PUBLIC "-//W3C//DTD SVG 20010904//EN"
 "http://www.w3.org/TR/2001/REC-SVG-20010904/DTD/svg10.dtd">
<svg version="1.0" xmlns="http://www.w3.org/2000/svg"
 width="16.000000pt" height="16.000000pt" viewBox="0 0 16.000000 16.000000"
 preserveAspectRatio="xMidYMid meet">
<metadata>
Created by potrace 1.11, written by Peter Selinger 2001-2013
</metadata>
<g transform="translate(0.000000,16.000000) scale(0.003200,-0.003200)"
fill="#000000" stroke="none">
<path d="M4124 4677 c-84 -33 -134 -105 -134 -194 0 -185 228 -272 354 -133
71 79 73 187 3 267 -57 65 -147 89 -223 60z"/>
<path d="M2265 4364 c-356 -35 -523 -87 -742 -230 -337 -219 -658 -622 -809
-1016 -78 -203 -124 -448 -124 -654 0 -142 11 -186 95 -387 36 -85 80 -204 99
-264 113 -362 248 -617 423 -803 199 -212 416 -331 708 -389 161 -32 324 -41
770 -44 486 -2 484 -3 675 89 394 189 694 516 894 976 158 364 210 558 209
788 0 222 -54 428 -193 737 -237 531 -550 911 -884 1073 -206 100 -334 121
-761 125 -176 2 -338 1 -360 -1z m365 -595 c238 -29 589 -209 780 -399 213
-211 332 -486 360 -828 21 -255 -32 -546 -138 -762 -117 -238 -329 -448 -554
-549 -270 -122 -626 -146 -883 -58 -281 96 -502 285 -726 620 -114 170 -165
266 -205 387 -27 81 -28 94 -28 265 0 198 15 289 74 467 155 463 577 799 1076
857 102 12 150 12 244 0z"/>
<path d="M2700 3426 c-3 -3 -93 -10 -199 -16 -216 -11 -307 -27 -431 -74 -278
-104 -502 -391 -566 -726 -20 -103 -19 -283 1 -367 53 -217 237 -456 519 -675
109 -84 187 -128 291 -164 72 -25 93 -28 220 -28 155 0 226 13 351 65 186 77
328 206 496 451 114 164 184 288 214 378 29 83 24 255 -9 381 -58 222 -206
436 -400 581 -102 75 -186 122 -287 159 -78 28 -189 48 -200 35z"/>
<path d="M565 4203 c-142 -75 -157 -271 -27 -354 58 -37 104 -45 161 -30 159
42 210 238 90 345 -22 20 -51 41 -65 46 -38 15 -125 11 -159 -7z"/>
<path d="M342 1459 c-156 -79 -144 -305 20 -373 126 -53 277 50 278 190 0 58
-43 139 -92 172 -56 37 -146 42 -206 11z"/>
<path d="M814 642 c-121 -57 -156 -218 -68 -320 91 -107 262 -90 331 33 31 55
31 145 0 200 -51 90 -171 130 -263 87z"/>
</g>
</svg>
